<?xml version="1.0" standalone="no"?>
<!DOCTYPE svg PUBLIC "-//W3C//DTD SVG 20010904//EN"
 "http://www.w3.org/TR/2001/REC-SVG-20010904/DTD/svg10.dtd">
<svg version="1.0" xmlns="http://www.w3.org/2000/svg"
 width="512.000000pt" height="512.000000pt" viewBox="0 0 512.000000 512.000000"
 preserveAspectRatio="xMidYMid meet">
<metadata>
Created by potrace 1.11, written by Peter Selinger 2001-2013
</metadata>
<g transform="translate(0.000000,512.000000) scale(0.100000,-0.100000)"
fill="#000000" stroke="none">
<path d="M0 2560 l0 -2560 2560 0 2560 0 0 2560 0 2560 -2560 0 -2560 0 0
-2560z m1083 1016 c136 -49 195 -197 130 -327 -89 -175 -361 -167 -449 14 -31
65 -31 124 0 185 30 58 68 95 126 121 52 24 136 27 193 7z m1685 -993 l-3
-918 -200 0 -200 0 -3 63 c-2 34 -6 62 -11 62 -4 0 -23 -16 -42 -36 -130 -135
-367 -164 -568 -68 -101 47 -213 159 -265 265 -147 298 -98 675 115 890 201
203 523 222 714 44 27 -25 50 -45 52 -45 2 0 3 149 3 330 l0 330 205 0 205 0
-2 -917z m807 416 c77 -14 166 -60 226 -116 l49 -46 0 66 c0 36 5 69 11 72 6
4 97 7 202 6 l192 0 0 -658 0 -658 -200 0 -200 0 0 63 c0 34 -3 62 -6 62 -3 0
-18 -14 -35 -31 -41 -43 -137 -97 -202 -114 -67 -18 -181 -19 -254 -4 -224 47
-404 249 -454 507 -19 97 -18 254 2 350 69 339 362 558 669 501z m-2387 -682
l2 -667 -200 0 -200 0 0 663 c0 365 2 666 4 668 3 2 91 4 198 3 l193 0 3 -667z"/>
<path d="M1986 2604 c-33 -11 -63 -30 -95 -63 -60 -62 -86 -131 -86 -232 0
-65 5 -85 33 -141 50 -103 127 -149 244 -149 115 0 197 50 245 149 23 49 27
70 28 147 0 73 -4 99 -23 140 -62 135 -199 194 -346 149z"/>
<path d="M3473 2599 c-68 -26 -137 -101 -158 -172 -34 -114 -8 -250 61 -327
46 -50 121 -82 195 -81 83 0 134 19 189 68 65 58 90 124 90 237 0 72 -4 91
-30 143 -65 130 -209 185 -347 132z"/>
</g>
</svg>
